<svg width="2471" height="1821.9999999999998" xmlns="http://www.w3.org/2000/svg">

 <g>
  <title>background</title>
  <rect fill="none" id="canvas_background" height="602" width="802" y="-1" x="-1"/>
 </g>
 <g>
  <title>Layer 1</title>
  <g id="surface1">
   <path id="svg_2" fill-rule="nonzero" fill="rgb(99.198914%,87.799072%,87.098694%)" d="m394.24219,1706.39063c0,0 -475.83985,52.66796 -228.32422,-529.60938c247.51953,-582.26953 393.01172,-187.07031 634.46484,-337.48828c241.44532,-150.41406 141.75782,-615.8125 477.95703,-463.12109c336.19141,152.6875 437.12891,571.80078 774.44141,374.55859c337.29688,-197.25 400.9375,309.25781 233.89844,616.05078c-167.03906,306.78906 -499.37891,393.23047 -992.55078,297.48828c-493.15625,-95.73828 -622.23828,25.30078 -899.88672,42.1211"/>
   <path id="svg_3" fill-rule="nonzero" fill="rgb(25.099182%,71.398926%,82.699585%)" d="m854.94922,1495.60938c0,0 -3.34375,15.62109 21.49219,12.46875c-8.88282,-16.63672 -17.21875,-23.89844 -21.49219,-12.46875"/>
   <path id="svg_4" fill-rule="nonzero" fill="rgb(25.099182%,71.398926%,82.699585%)" d="m813.37109,1361.37109c0,0 -11.28125,11.30079 11.27735,22.14844c1.57812,-18.80078 -1.48047,-29.42969 -11.27735,-22.14844"/>
   <path id="svg_5" fill-rule="nonzero" fill="rgb(25.099182%,71.398926%,82.699585%)" d="m800.83984,1377.33984c0,0 -7.83203,13.92188 16.8125,18.30079c-3.52734,-18.53125 -9.32812,-27.94141 -16.8125,-18.30079"/>
   <path id="svg_6" fill-rule="nonzero" fill="rgb(25.099182%,71.398926%,82.699585%)" d="m789.25781,1395.03906c0,0 -3.51953,15.58203 21.35157,12.72266c-8.69532,-16.74219 -16.95704,-24.10156 -21.35157,-12.72266"/>
   <path id="svg_7" fill-rule="nonzero" fill="rgb(25.099182%,71.398926%,82.699585%)" d="m780.14453,1410.73047c0,0 -2.23047,15.80859 22.32422,10.92969c-10.03125,-15.98047 -18.86719,-22.64063 -22.32422,-10.92969"/>
   <path id="svg_8" fill-rule="nonzero" fill="rgb(25.099182%,71.398926%,82.699585%)" d="m772.48047,1428.14063c0,0 0.96094,15.9375 24.04687,6.25781c-13.01171,-13.66016 -22.99218,-18.41797 -24.04687,-6.25781"/>
   <path id="svg_9" fill-rule="nonzero" fill="rgb(25.099182%,71.398926%,82.699585%)" d="m767.23438,1445.85156c0,0 0.95703,15.9375 24.04687,6.26953c-13.01172,-13.67187 -22.99219,-18.42968 -24.04687,-6.26953"/>
   <path id="svg_10" fill-rule="nonzero" fill="rgb(25.099182%,71.398926%,82.699585%)" d="m764.27344,1463.87109c0,0 4.0664,15.4375 24.80859,1.41797c-15.4375,-10.83984 -26.15234,-13.55078 -24.80859,-1.41797"/>
   <path id="svg_11" fill-rule="nonzero" fill="rgb(25.099182%,71.398926%,82.699585%)" d="m747.46484,1550.80078c0,0 15.94532,0.84766 8.94922,-23.1914c-15.04297,11.3789 -20.90625,20.75 -8.94922,23.1914"/>
   <path id="svg_12" fill-rule="nonzero" fill="rgb(25.099182%,71.398926%,82.699585%)" d="m732.125,1543.42969c0,0 15.94531,0.85937 8.94922,-23.17969c-15.04688,11.37891 -20.91016,20.75 -8.94922,23.17969"/>
   <path id="svg_13" fill-rule="nonzero" fill="rgb(25.099182%,71.398926%,82.699585%)" d="m716.09375,1535.92969c0,0 15.16797,4.99219 14.69141,-20.03906c-17.4961,7.05078 -25.60547,14.57031 -14.69141,20.03906"/>
   <path id="svg_14" fill-rule="nonzero" fill="rgb(25.099182%,71.398926%,82.699585%)" d="m701.67969,1522.98828c0,0 13.41406,8.67188 19.29297,-15.66797c-18.71485,2.39844 -28.46094,7.6211 -19.29297,15.66797"/>
   <path id="svg_15" fill-rule="nonzero" fill="rgb(25.099182%,71.398926%,82.699585%)" d="m688.80078,1505.12109c0,0 10.39063,12.11719 22.95313,-9.53125c-18.61719,-3.03125 -29.44922,-0.80859 -22.95313,9.53125"/>
   <path id="svg_16" fill-rule="nonzero" fill="rgb(25.099182%,71.398926%,82.699585%)" d="m679.10547,1487.46875c0,0 8.20312,13.71094 24.23047,-5.51953c-17.84766,-6.12891 -28.89453,-5.75781 -24.23047,5.51953"/>
   <path id="svg_17" fill-rule="nonzero" fill="rgb(25.099182%,71.398926%,82.699585%)" d="m671.20313,1470.94922c0,0 8.19531,13.69922 24.23046,-5.52734c-17.84765,-6.1211 -28.89843,-5.75 -24.23046,5.52734"/>
   <path id="svg_18" fill-rule="nonzero" fill="rgb(25.099182%,71.398926%,82.699585%)" d="m669.33203,1448.07813c0,0 -0.07031,15.97265 23.59375,7.80078c-12.11328,-14.46875 -21.7539,-19.85938 -23.59375,-7.80078"/>
   <path id="svg_19" fill-rule="nonzero" fill="rgb(25.099182%,71.398926%,82.699585%)" d="m690.19531,1429.17188c0,0 15.79297,2.3789 4.09766,24.51953c-12.44531,-14.17969 -16.30078,-24.55078 -4.09766,-24.51953"/>
   <path id="svg_20" fill-rule="nonzero" fill="rgb(25.099182%,71.398926%,82.699585%)" d="m717.72266,1444.03125c0,0 7.42968,14.14063 -17.33203,17.82031c4.0625,-18.42968 10.13281,-27.67187 17.33203,-17.82031"/>
   <path id="svg_21" fill-rule="nonzero" fill="rgb(25.099182%,71.398926%,82.699585%)" d="m729.01953,1461.30859c0,0 4.19922,15.41016 -20.77344,13.64063c7.95313,-17.10938 15.87891,-24.82031 20.77344,-13.64063"/>
   <path id="svg_22" fill-rule="nonzero" fill="rgb(25.099182%,71.398926%,82.699585%)" d="m737.05469,1478.48828c0,0 0.96094,15.94141 -23.1211,9.10156c11.27735,-15.12109 20.61329,-21.05078 23.1211,-9.10156"/>
   <path id="svg_23" fill-rule="nonzero" fill="rgb(25.099182%,71.398926%,82.699585%)" d="m748.61719,1492.12109c0,0 0.95703,15.9375 -23.125,9.09766c11.27734,-15.11719 20.61719,-21.04687 23.125,-9.09766"/>
   <path id="svg_24" fill-rule="nonzero" fill="rgb(25.099182%,71.398926%,82.699585%)" d="m762.66797,1501.23047c0,0 5.29297,15.07031 -19.74609,15.08984c6.71093,-17.6289 14.0625,-25.8789 19.74609,-15.08984"/>
   <path id="svg_25" fill-rule="nonzero" fill="rgb(25.099182%,71.398926%,82.699585%)" d="m777.93359,1507.76172c0,0 5.29297,15.06641 -19.74218,15.09766c6.70312,-17.64063 14.05859,-25.89844 19.74218,-15.09766"/>
   <path id="svg_26" fill-rule="nonzero" fill="rgb(25.099182%,71.398926%,82.699585%)" d="m856.20703,1477.14063c0,0 -3.36719,15.60937 21.46875,12.51953c-8.84765,-16.66016 -17.16797,-23.94141 -21.46875,-12.51953"/>
   <path id="svg_27" fill-rule="nonzero" fill="rgb(25.099182%,71.398926%,82.699585%)" d="m870.14063,1458.55859c0,0 -11.41407,11.17188 11.01171,22.28125c1.8086,-18.78125 -1.1289,-29.4414 -11.01171,-22.28125"/>
   <path id="svg_28" fill-rule="nonzero" fill="rgb(25.099182%,71.398926%,82.699585%)" d="m905.84766,1477.14063c0,0 -10.54688,-11.99219 -22.82813,9.82812c18.66406,2.79297 29.45703,0.42188 22.82813,-9.82812"/>
   <path id="svg_29" fill-rule="nonzero" fill="rgb(25.099182%,71.398926%,82.699585%)" d="m847.48438,1406.60156c0,0 3.78906,-15.51172 -21.12891,-13.08984c8.39062,16.88672 16.52344,24.38672 21.12891,13.08984"/>
   <path id="svg_30" fill-rule="nonzero" fill="rgb(25.099182%,71.398926%,82.699585%)" d="m836.0625,1424.64844c0,0 6.41016,-14.62891 -18.55078,-16.53906c5.35547,18.08984 12.0625,26.8789 18.55078,16.53906"/>
   <path id="svg_31" fill-rule="nonzero" fill="rgb(25.099182%,71.398926%,82.699585%)" d="m821.22266,1460.07813c0,0 3.48437,-15.57813 -21.37891,-12.66797c8.73047,16.73047 17,24.07031 21.37891,12.66797"/>
   <path id="svg_32" fill-rule="nonzero" fill="rgb(25.099182%,71.398926%,82.699585%)" d="m815.67969,1479.37109c0,0 5.85937,-14.85937 -19.15235,-15.83203c6.02735,17.88282 13.0625,26.40235 19.15235,15.83203"/>
   <path id="svg_33" fill-rule="nonzero" fill="rgb(25.099182%,71.398926%,82.699585%)" d="m827.20313,1442.35938c0,0 5.66015,-14.9375 -19.36329,-15.58985c6.25782,17.80078 13.40625,26.24219 19.36329,15.58985"/>
   <path id="svg_34" fill-rule="nonzero" fill="rgb(25.099182%,71.398926%,82.699585%)" d="m855.14844,1384.37891c0,0 -6.06641,-14.76953 -24.78516,1.85156c16.74219,8.71875 27.71485,10 24.78516,-1.85156"/>
   <path id="svg_35" fill-rule="nonzero" fill="rgb(25.099182%,71.398926%,82.699585%)" d="m842.51953,1360.62109c0,0 -15.61328,-3.35156 -12.48828,21.48829c16.65234,-8.8711 23.91797,-17.19922 12.48828,-21.48829"/>
   <path id="svg_36" fill-rule="nonzero" fill="rgb(25.099182%,71.398926%,82.699585%)" d="m906.69531,1496.69922c0,0 -8.59765,-13.46094 -24.05468,6.22266c18.00781,5.60937 29.04687,4.90625 24.05468,-6.22266"/>
   <path id="svg_37" fill-rule="nonzero" fill="rgb(25.099182%,71.398926%,82.699585%)" d="m907.51563,1518.69922c0,0 -2.3125,-15.80078 -24.4961,-4.21094c14.125,12.51172 24.46485,16.42188 24.4961,4.21094"/>
   <path id="svg_38" fill-rule="nonzero" fill="rgb(25.099182%,71.398926%,82.699585%)" d="m904.65234,1535.85938c0,0 -0.45312,-15.96875 -23.83593,-7.03125c12.57422,14.07031 22.39062,19.14062 23.83593,7.03125"/>
   <path id="svg_39" fill-rule="nonzero" fill="rgb(25.099182%,71.398926%,82.699585%)" d="m850.42188,1514.01953c0,0 0.90625,15.94141 24.02343,6.35156c-12.95703,-13.71093 -22.91797,-18.51171 -24.02343,-6.35156"/>
   <path id="svg_40" fill-rule="nonzero" fill="rgb(25.099182%,71.398926%,82.699585%)" d="m847.3125,1533.07031c0,0 5.92969,14.82813 24.79688,-1.62109c-16.64454,-8.87109 -27.61719,-10.25 -24.79688,1.62109"/>
   <path id="svg_41" fill-rule="nonzero" fill="rgb(25.099182%,71.398926%,82.699585%)" d="m842.98828,1547.08984c0,0 -0.03125,15.98047 23.61719,7.76172c-12.13281,-14.45312 -21.78906,-19.82031 -23.61719,-7.76172"/>
   <path id="svg_42" fill-rule="nonzero" fill="rgb(25.099182%,71.398926%,82.699585%)" d="m827.03125,1576.83984c0,0 -0.03516,15.96875 23.61328,7.76172c-12.1289,-14.45312 -21.78906,-19.83203 -23.61328,-7.76172"/>
   <path id="svg_43" fill-rule="nonzero" fill="rgb(25.099182%,71.398926%,82.699585%)" d="m835.35547,1561.69922c0,0 0.39844,15.96094 23.80859,7.10937c-12.51953,-14.10937 -22.32422,-19.21875 -23.80859,-7.10937"/>
   <path id="svg_44" fill-rule="nonzero" fill="rgb(25.099182%,71.398926%,82.699585%)" d="m895.23828,1556.94141c0,0 6.75,-14.47266 -18.16015,-16.96094c4.9375,18.21094 11.4414,27.14844 18.16015,16.96094"/>
   <path id="svg_45" fill-rule="nonzero" fill="rgb(25.099182%,71.398926%,82.699585%)" d="m886.34766,1574.44141c0,0 7.125,-14.29297 -17.70313,-17.44141c4.44531,18.32813 10.71094,27.44141 17.70313,17.44141"/>
   <path id="svg_46" fill-rule="nonzero" fill="rgb(25.099182%,71.398926%,82.699585%)" d="m875.39453,1592.32813c0,0 10.03906,-12.41797 -13.53125,-20.83985c0.39453,18.86328 4.55078,29.10156 13.53125,20.83985"/>
   <path id="svg_47" fill-rule="nonzero" fill="rgb(25.099182%,71.398926%,82.699585%)" d="m860.19531,1607.51172c0,0 13.60547,-8.36328 -5.8125,-24.16016c-5.91406,17.91797 -5.40234,28.96875 5.8125,24.16016"/>
   <path id="svg_48" fill-rule="nonzero" fill="rgb(19.999695%,16.499329%,43.499756%)" d="m835.15625,1663.69922c-1.42969,0 -2.83203,-0.73047 -3.63672,-2.02734c-1.03125,-1.67188 -25.39062,-41.5625 -38.55859,-95.99219c-17.53516,-72.53906 -6.04688,-135.71875 33.22656,-182.73828c1.50781,-1.80078 4.20313,-2.05078 6.01172,-0.54297c1.80469,1.51172 2.04687,4.20312 0.53906,6.01172c-90.83984,108.73047 5.06641,267.1914 6.04297,268.78125c1.23828,2.00781 0.61328,4.63672 -1.39062,5.86718c-0.69922,0.42969 -1.47657,0.64063 -2.23438,0.64063"/>
   <path id="svg_49" fill-rule="nonzero" fill="rgb(19.999695%,16.499329%,43.499756%)" d="m816.85547,1627.35156c-1.17578,0 -2.34766,-0.49218 -3.1875,-1.4414c-1.56641,-1.76172 -1.40625,-4.46094 0.35547,-6.01953c73.63281,-65.28907 61.85156,-137.46875 61.72265,-138.19141c-0.41015,-2.32031 1.14063,-4.53906 3.46094,-4.94922c2.3125,-0.41016 4.53125,1.14063 4.9375,3.46094c0.5586,3.14062 12.71485,77.6289 -64.45703,146.05859c-0.8125,0.71875 -1.82422,1.08203 -2.83203,1.08203"/>
   <path id="svg_50" fill-rule="nonzero" fill="rgb(19.999695%,16.499329%,43.499756%)" d="m772.70703,1531.26953c-55.17187,0 -81.03125,-72.75 -81.30859,-73.55859c-0.76953,-2.23047 0.41015,-4.65235 2.63672,-5.42188c2.21875,-0.77734 4.65234,0.40235 5.42578,2.63282c1.16797,3.36718 29.32812,82.34765 89.66015,65.44921c2.26954,-0.63281 4.6211,0.6875 5.25782,2.95704c0.63672,2.27343 -0.6875,4.62109 -2.96094,5.26171c-6.57031,1.83985 -12.80859,2.67969 -18.71094,2.67969"/>
   <path id="svg_51" fill-rule="nonzero" fill="rgb(25.099182%,71.398926%,82.699585%)" d="m324.4375,1738.44141c172.58984,-102.05078 102.29297,-374.61328 0.29297,-305.47266c-102.13281,70.03125 90.82812,169.20313 -0.29297,305.47266"/>
   <path id="svg_52" fill-rule="nonzero" fill="rgb(29.798889%,77.598572%,88.198853%)" d="m322.03516,1740.46875c-1.11719,-1.32812 -0.95313,-3.30078 0.3789,-4.42969c23.25,-19.61718 39.9336,-42.51953 50.05469,-68.53906l-26.70312,-33.66016c-1.07813,-1.35937 -0.85157,-3.33984 0.51171,-4.41796c1.35938,-1.08204 3.32813,-0.85157 4.41016,0.51953l24.30469,30.61718c5.17969,-15.35937 8.15234,-31.76953 8.92187,-49.1875l-49.53906,-35.71093c-1.41406,-1.01953 -1.71875,-2.98047 -0.71094,-4.39844c1.01172,-1.41016 2.97657,-1.73047 4.38282,-0.71094l46.0625,33.21094c0.14062,-18.69141 -2.16407,-38.5 -6.95704,-59.42188c-0.58203,-2.55859 -1.20703,-5.08984 -1.85156,-7.60156l-72.58203,-36.75781c-1.55469,-0.78906 -2.17187,-2.67969 -1.39062,-4.23047c0.80078,-1.53906 2.68359,-2.16016 4.22265,-1.37891l67.54688,34.21875c-15.05469,-53.01953 -40.58203,-92.64843 -40.86719,-93.08984c-0.94141,-1.44922 -0.53516,-3.41016 0.91797,-4.33984c1.45703,-0.94922 3.39844,-0.53125 4.34375,0.91015c0.29297,0.44141 25.63281,39.75 41.04687,92.66016l29.54297,-52.5c0.83985,-1.51172 2.76563,-2.05078 4.27735,-1.19141c1.50781,0.83985 2.04687,2.76172 1.1914,4.28125l-32.64844,58c0.82032,3.1211 1.61329,6.25782 2.33985,9.44922c4.28125,18.60938 6.57812,36.51172 6.9375,53.6211l29.21484,-46.82032c0.97656,-1.44922 2.85938,-1.92187 4.33594,-1c1.47266,0.91797 1.92578,2.85938 1.00781,4.32813l-34.63281,55.48047c-0.55078,16.5625 -3,32.33203 -7.33984,47.22265l25.26953,-20.95312c1.33984,-1.10938 3.32031,-0.91797 4.42187,0.41015c0.89453,1.08204 0.95313,2.57032 0.23828,3.69141l-0.64062,0.73828l-32.98438,27.33985c-4.16797,11.39062 -9.49609,22.23046 -15.98047,32.45312c-9.67187,15.23047 -21.89062,29.12891 -36.6289,41.55859c-1.32031,1.12891 -3.30078,0.96875 -4.42578,-0.37109"/>
   <path id="svg_53" fill-rule="nonzero" fill="rgb(25.099182%,71.398926%,82.699585%)" d="m420.80859,1703.94141c-187.49218,71.04687 -356.45312,-154.08985 -238.74218,-190.5625c118.47265,-36.02735 75.40625,176.60937 238.74218,190.5625"/>
   <path id="svg_54" fill-rule="nonzero" fill="rgb(29.798889%,77.598572%,88.198853%)" d="m423.89844,1703.33984c-0.34375,-1.71093 -1.99219,-2.82031 -3.69922,-2.48046c-29.84766,5.90234 -58.15234,4.6289 -84.79297,-3.71875l-9.61328,-41.87891c-0.38672,-1.69141 -2.07813,-2.74219 -3.76953,-2.35156c-1.6875,0.3789 -2.7461,2.05859 -2.34766,3.76172l8.73438,38.10937c-15.23438,-5.55078 -29.90625,-13.48047 -43.99219,-23.76172l3.05469,-61c0.08984,-1.73047 -1.25,-3.1914 -2.99219,-3.28906c-1.73047,-0.08984 -3.21094,1.23828 -3.28906,2.98047l-2.83594,56.71094c-14.6875,-11.5625 -28.72266,-25.73047 -42.05859,-42.54297c-1.63672,-2.0586 -3.21875,-4.11719 -4.77735,-6.1875l16.6211,-79.65235c0.35546,-1.71093 -0.73047,-3.36718 -2.4336,-3.71875c-1.70312,-0.33984 -3.36328,0.73047 -3.71484,2.42969l-15.46485,74.12109c-31.99609,-44.87109 -47.00781,-89.5625 -47.17187,-90.05078c-0.54297,-1.64843 -2.33203,-2.55078 -3.96875,-2c-1.65234,0.55078 -2.53516,2.32032 -1.99609,3.96875c0.15625,0.5 15.03125,44.83203 46.71875,89.92188l-59.44532,-9.72266c-1.70312,-0.27734 -3.32422,0.88281 -3.60156,2.60156c-0.28516,1.69922 0.87891,3.32032 2.59375,3.60938l65.69141,10.73047c1.92187,2.58203 3.88281,5.16015 5.92187,7.71875c11.85547,14.97265 24.40625,27.9414 37.53906,38.91015l-54.80859,-6.42968c-1.74609,-0.14063 -3.28516,1.03125 -3.49219,2.76172c-0.19922,1.71875 1.03907,3.28906 2.75782,3.48828l64.94921,7.60937c13.28516,9.92188 27.125,17.85156 41.46094,23.76172l-32.14453,6.64844c-1.69922,0.35156 -2.78906,2.02344 -2.4375,3.71094c0.27734,1.37109 1.41406,2.35156 2.74219,2.49218l0.96875,-0.04297l41.95312,-8.67968c11.4961,3.85156 23.28907,6.46093 35.32032,7.79297c17.93359,1.95703 36.42187,1.09765 55.34375,-2.65235c1.69921,-0.32812 2.8125,-1.98047 2.47656,-3.67969"/>
   <path id="svg_55" fill-rule="nonzero" fill="rgb(25.099182%,71.398926%,82.699585%)" d="m334.25781,1699.19922c168.32422,39.46875 287.21094,-172.14063 182.46094,-189.96875c-105.35937,-17.35938 -44.42578,159.50781 -182.46094,189.96875"/>
   <path id="svg_56" fill-rule="nonzero" fill="rgb(29.798889%,77.598572%,88.198853%)" d="m331.55078,1699.03125c0.09375,-1.5 1.38281,-2.63281 2.875,-2.53125c26.1836,1.66016 50.23438,-2.64062 72.05469,-12.80078l3.47266,-36.89063c0.14453,-1.48828 1.46484,-2.57812 2.94921,-2.4375c1.49219,0.14063 2.58985,1.45704 2.44141,2.94922l-3.14844,33.57032c12.39453,-6.48047 24.03516,-14.91016 34.91016,-25.30079l-9.53125,-51.78906c-0.26563,-1.48047 0.71094,-2.8789 2.1875,-3.16015c1.47266,-0.26954 2.87891,0.69921 3.14453,2.16796l8.86328,48.16016c11.24219,-11.54687 21.62891,-25.25781 31.125,-41.14062c1.16406,-1.9375 2.28516,-3.87891 3.37891,-5.82813l-23.24219,-66.19922c-0.49609,-1.41015 0.24609,-2.96094 1.66016,-3.44922c1.41797,-0.49218 2.96093,0.23828 3.45703,1.64844l21.625,61.60938c22.25781,-41.98829 30.01953,-81.89063 30.09765,-82.32813c0.28907,-1.47266 1.71094,-2.44141 3.17969,-2.16016c1.46875,0.27735 2.42578,1.69922 2.14844,3.16797c-0.07813,0.44141 -7.76563,40.03125 -29.73438,82.16016l49.71094,-15.05078c1.42969,-0.42969 2.94141,0.38281 3.375,1.8125c0.4336,1.42969 -0.375,2.9375 -1.8125,3.3789l-54.93359,16.62891c-1.35156,2.42188 -2.73438,4.85156 -4.1836,7.26953c-8.4414,14.14063 -17.6914,26.65235 -27.67578,37.52344l46.1211,-11.71094c1.48047,-0.33203 2.92578,0.50781 3.29297,1.96094c0.37109,1.44922 -0.50391,2.92969 -1.95704,3.29687l-54.65625,13.86329c-10.23046,9.98828 -21.16796,18.33984 -32.74609,25.01953l28.23047,2.02734c1.49609,0.10938 2.61328,1.41016 2.50781,2.90234c-0.08594,1.20704 -0.9414,2.16797 -2.05859,2.4375l-0.83594,0.07032l-36.84766,-2.66016c-9.38671,4.60156 -19.17968,8.17188 -29.30859,10.66016c-15.10156,3.72265 -31.00781,5.08203 -47.60156,4.01953c-1.4961,-0.08985 -2.63281,-1.37891 -2.53516,-2.86719"/>
   <path id="svg_57" fill-rule="nonzero" fill="rgb(25.099182%,71.398926%,82.699585%)" d="m1930.62109,1684.60156c193.14844,-53.80078 195.92969,-335.27343 79.48829,-294.9414c-116.80079,41.14062 43.85156,186.96093 -79.48829,294.9414"/>
   <path id="svg_58" fill-rule="nonzero" fill="rgb(29.798889%,77.598572%,88.198853%)" d="m1927.76953,1685.94141c-0.73828,-1.58203 -0.05859,-3.44141 1.51172,-4.17969c27.54688,-12.92188 49.59766,-30.72266 66.11719,-53.22266l-17.0586,-39.4375c-0.6914,-1.58984 0.03907,-3.4414 1.64063,-4.13281c1.58984,-0.6875 3.42969,0.04297 4.12891,1.64063l15.51953,35.89062c9,-13.5 16.12109,-28.57812 21.38281,-45.21094l-38.58984,-47.32812c-1.09375,-1.35156 -0.88282,-3.32031 0.45703,-4.42969c1.35156,-1.10156 3.32031,-0.90234 4.41015,0.44922l35.89063,44.01953c4.98047,-18.01953 7.89062,-37.75 8.67969,-59.19141c0.10156,-2.6289 0.15234,-5.23046 0.17968,-7.82031l-60.57031,-54.32812c-1.28906,-1.16016 -1.39844,-3.14844 -0.23828,-4.44141c1.16797,-1.27734 3.14844,-1.39844 4.44141,-0.23828l56.35937,50.55859c-0.79297,-55.09765 -15.17187,-100 -15.33203,-100.48828c-0.53906,-1.66015 0.37109,-3.42969 2.01953,-3.97265c1.65234,-0.52735 3.41016,0.37109 3.96094,2.02343c0.16015,0.48828 14.4414,45.02735 15.60156,100.11719l42.14844,-43.02734c1.19922,-1.24219 3.19922,-1.26953 4.4414,-0.05078c1.23829,1.21093 1.25782,3.19921 0.03907,4.44921l-46.5586,47.55079c-0.03125,3.21875 -0.08203,6.46093 -0.20312,9.73046c-0.6875,19.08985 -3.11719,36.96875 -7.19922,53.58985l40.35156,-37.64063c1.32031,-1.16015 3.25781,-1.12109 4.44922,0.14844c1.17969,1.26953 1.10938,3.26172 -0.14844,4.45313l-47.83203,44.58984c-4.82812,15.85937 -11.28906,30.44922 -19.33984,43.69922l29.83984,-13.67188c1.58203,-0.73047 3.44141,-0.02734 4.17188,1.53907c0.57812,1.27343 0.25,2.73046 -0.74219,3.63281l-0.80859,0.53906l-38.94141,17.85938c-6.98047,9.91015 -14.9375,19 -23.84766,27.1914c-13.28125,12.19922 -28.6914,22.46094 -46.15234,30.64063c-1.57031,0.75 -3.4375,0.07812 -4.17969,-1.5"/>
   <path id="svg_59" fill-rule="nonzero" fill="rgb(25.099182%,71.398926%,82.699585%)" d="m2032.62891,1676.26953c-199.5,20 -304.28907,-241.25 -181.14844,-245.94922c123.76953,-4.08203 27.03125,190.1211 181.14844,245.94922"/>
   <path id="svg_60" fill-rule="nonzero" fill="rgb(29.798889%,77.598572%,88.198853%)" d="m2035.78125,1676.48828c0.10938,-1.73828 -1.20312,-3.23828 -2.92969,-3.34765c-30.36328,-2.03907 -57.37109,-10.60938 -80.92968,-25.58204l1.57812,-42.94921c0.05859,-1.73047 -1.30078,-3.17969 -3.03125,-3.25c-1.73047,-0.0586 -3.1875,1.28906 -3.25,3.03125l-1.4375,39.07031c-13.28125,-9.3125 -25.39062,-20.76953 -36.33203,-34.35156l18.76953,-58.1211c0.53125,-1.64844 -0.37891,-3.41015 -2.03906,-3.95703c-1.64844,-0.53125 -3.41797,0.36719 -3.94922,2.01953l-17.44922,54.03906c-11.17969,-14.96875 -21.0625,-32.30078 -29.58203,-51.98828c-1.05078,-2.41015 -2.03906,-4.8125 -3.00781,-7.22265l36.70703,-72.60938c0.78125,-1.55078 0.16015,-3.4414 -1.38672,-4.23047c-1.55078,-0.76953 -3.44141,-0.16015 -4.22266,1.39063l-34.16015,67.58203c-19.25782,-51.64063 -22.16797,-98.69141 -22.19922,-99.21094c-0.10156,-1.73047 -1.58985,-3.0625 -3.32031,-2.96094c-1.73047,0.10157 -3.05079,1.58985 -2.94922,3.3086c0.01953,0.53125 2.89062,47.20312 21.80859,98.96094l-54.89844,-24.78907c-1.58203,-0.71875 -3.4414,-0.01953 -4.16015,1.57032c-0.71094,1.57812 -0.01172,3.4375 1.57812,4.16015l60.66016,27.39844c1.1914,2.99219 2.41015,5.99219 3.71094,8.99219c7.57031,17.52734 16.33203,33.32031 26.17187,47.30859l-51.26953,-20.42187c-1.65234,-0.58985 -3.44141,0.15234 -4.08984,1.77343c-0.64063,1.59766 0.14843,3.4375 1.75781,4.07813l60.76172,24.1914c10.25781,13.01954 21.57031,24.26954 33.8789,33.6875l-32.76953,-1.89843c-1.73047,-0.10938 -3.22265,1.21875 -3.32031,2.9414c-0.08203,1.39844 0.75781,2.63672 2,3.11719l0.94922,0.21094l42.76953,2.5c10.10156,6.69922 20.82031,12.28125 32.10156,16.67969c16.8086,6.53906 34.89063,10.51171 54.12891,11.78906c1.73047,0.13281 3.23047,-1.17969 3.35156,-2.91016"/>
   <path id="svg_61" fill-rule="nonzero" fill="rgb(25.099182%,71.398926%,82.699585%)" d="m1950.28125,1649.25c152.32813,81.76172 322.01953,-91.78125 225.46875,-136.16016c-97.25,-44.08984 -84.26172,142.53907 -225.46875,136.16016"/>
   <path id="svg_62" fill-rule="nonzero" fill="rgb(29.798889%,77.598572%,88.198853%)" d="m1947.69922,1648.37891c0.49219,-1.41797 2.01953,-2.17969 3.44141,-1.69922c24.85937,8.39844 49.19921,10.48047 72.91015,6.32031l12.91797,-34.71875c0.51953,-1.40234 2.08203,-2.10937 3.48047,-1.58984c1.41016,0.51953 2.12109,2.07031 1.58984,3.48047l-11.75,31.59765c13.66016,-3.03906 27.08985,-8.16797 40.28125,-15.3789l4.23047,-52.49219c0.1211,-1.5 1.42969,-2.58985 2.92969,-2.47656c1.48828,0.11718 2.59766,1.41796 2.46875,2.90625l-3.92969,48.8125c13.85938,-8.24219 27.44141,-18.78125 40.74219,-31.66016c1.61719,-1.57031 3.20703,-3.16016 4.76953,-4.76172l-5.28125,-69.95703c-0.10937,-1.49219 1,-2.79297 2.5,-2.91016c1.48828,-0.08984 2.78906,1.01953 2.89844,2.5l4.91015,65.10938c32.39063,-34.78125 50.23047,-71.30078 50.42969,-71.71094c0.65235,-1.35156 2.28125,-1.91016 3.6211,-1.26172c1.35156,0.65235 1.91015,2.27344 1.26171,3.6211c-0.1914,0.41015 -17.88281,36.64062 -50.03125,71.64062l51.91016,-1.64062c1.48828,-0.0586 2.75,1.12109 2.80078,2.62109c0.03906,1.48828 -1.1289,2.73828 -2.6289,2.78906l-57.3711,1.8086c-1.92969,1.99218 -3.89062,3.98046 -5.92187,5.95312c-11.82032,11.45703 -24,21.14844 -36.45703,29.04688l47.57812,0.65234c1.51172,0.07031 2.69141,1.25 2.67969,2.75c-0.03125,1.48828 -1.25781,2.69922 -2.75,2.67969l-56.37891,-0.78125c-12.47265,6.98047 -25.19922,12.22265 -38.10937,15.66015l26.73047,9.28907c1.41796,0.49218 2.15625,2.04296 1.66796,3.45312c-0.39843,1.14063 -1.46875,1.84766 -2.62109,1.82031l-0.82812,-0.15234l-34.89063,-12.12109c-10.26172,2.01171 -20.64062,2.92187 -31.07812,2.6914c-15.55079,-0.32812 -31.26172,-3.14062 -47.01172,-8.46094c-1.42188,-0.46875 -2.17969,-2.00781 -1.71094,-3.42968"/>
   <path id="svg_63" fill-rule="nonzero" fill="rgb(29.798889%,77.598572%,88.198853%)" d="m1297.92188,1628.17969c-725.06641,0 -1297.91797,86.71094 -1297.91797,193.67187l2470.00781,0c0,-106.96093 -447.02344,-193.67187 -1172.08984,-193.67187"/>
   <path id="svg_64" fill-rule="nonzero" fill="rgb(47.099304%,81.599426%,92.199707%)" d="m1252.03125,1565.12891c5.16797,21.33984 -9.54297,58.87109 -35.62109,74.67968c-16.76172,-18.98828 -39.85938,-32.6289 -46.58985,-53.52734c-11.58984,-36.0625 29.71094,-29.32031 -11.51172,-103.64062c65.04297,1.89843 88.55079,61.14062 93.72266,82.48828"/>
   <path id="svg_65" fill-rule="nonzero" fill="rgb(25.498962%,71.798706%,83.099365%)" d="m1216.91016,1573.62891c5.16797,21.33984 1.57031,56.17968 -0.5,66.17968c-6.98828,-21.34765 -6.19922,-40.77734 -11.60157,-62c-9.28906,-36.61718 -3.79687,-26.13671 -46.5,-95.16796c13.19141,14.46093 53.44141,69.64843 58.60157,90.98828"/>
   <path id="svg_66" fill-rule="nonzero" fill="rgb(25.498962%,71.798706%,83.099365%)" d="m1279.98828,1608.83984c-8.25,16.10938 -37.60937,31.64844 -62.41015,27.5c-0.25782,-20.8789 -7.34766,-41.80859 -0.3086,-58.48828c12.15235,-28.76172 34.3086,-2.33203 48.53125,-70.92968c39.60938,36.16796 22.42969,85.80859 14.1875,101.91796"/>
   <path id="svg_67" fill-rule="nonzero" fill="rgb(29.798889%,77.598572%,88.198853%)" d="m1253.48828,1595.26953c-8.25,16.10938 -29.23828,35.94141 -35.91015,41.07031c7.11328,-17.10156 18.05078,-28.80859 26.10156,-44.96875c13.89062,-27.87109 11.67969,-18.35937 22.12109,-84.44921c0.46875,16.11718 -4.07031,72.25 -12.3125,88.34765"/>
   <path id="svg_68" fill-rule="nonzero" fill="rgb(25.099182%,71.398926%,82.699585%)" d="m1537.85156,1628.92188c0,0 -158.11328,-3.71094 -155.64062,-55.46094c2.46875,-51.75 107.53906,-0.90235 155.64062,55.46094"/>
   <path id="svg_69" fill-rule="nonzero" fill="rgb(25.099182%,71.398926%,82.699585%)" d="m1537.85156,1628.92188c0,0 -109.02343,-114.58204 -70.62109,-149.38282c38.37891,-34.77734 76.55859,75.51953 70.62109,149.38282"/>
   <path id="svg_70" fill-rule="nonzero" fill="rgb(25.099182%,71.398926%,82.699585%)" d="m1537.85156,1628.92188c0,0 4.16016,-158.10157 55.89844,-155.49219c51.75,2.6289 0.60156,107.55078 -55.89844,155.49219"/>
   <path id="svg_71" fill-rule="nonzero" fill="rgb(25.099182%,71.398926%,82.699585%)" d="m1537.85156,1628.92188c0,0 114.89844,-108.6836 149.57813,-70.19141c34.67187,38.48828 -75.73828,76.34766 -149.57813,70.19141"/>
   <path id="svg_72" fill-rule="nonzero" fill="rgb(18.399048%,16.499329%,42.399597%)" d="m1606.75,1615.69141c-10.55078,-19.19141 -57.55078,5.6875 -71.98047,13.9375c-28.57812,-22.98828 -77.89844,-38.50782 -76.08984,-14.01953c1.69922,23.03125 64.10156,19.49218 78.12109,18.40234c33.84766,9.07812 81.73047,3.06641 69.94922,-18.32031"/>
   <path id="svg_73" fill-rule="nonzero" fill="rgb(99.198914%,87.799072%,87.098694%)" d="m1627.92969,178.03125c-26.03125,5.17969 -40.44922,4.23828 -71,-22.55078c-12.32813,-18.17969 -33.16016,-30.12891 -56.78125,-30.12891c-30.07031,0 -55.60938,19.37891 -64.83985,46.32032c-7.44921,20.83984 -19.91015,24.36718 -28.28906,24.05859c-3.10937,-1.17969 -6.03906,-1.83203 -8.6914,-1.83203c-29.41797,0 -53.25,23.83984 -53.25,53.25c0,29.40234 23.83203,53.24219 53.25,53.24219l229.60156,0c33.80078,0 61.1914,-27.39063 61.1914,-61.17969c0,-33.78906 -27.39062,-61.17969 -61.1914,-61.17969"/>
   <path id="svg_74" fill-rule="nonzero" fill="rgb(98.399353%,80.39856%,79.998779%)" d="m1589.82031,220.10156c-17.08203,3.39844 -26.53906,2.77735 -46.58984,-14.80078c-8.08984,-11.92969 -21.76172,-19.76953 -37.26172,-19.76953c-19.73047,0 -36.48047,12.71875 -42.54687,30.39063c-4.88282,13.67968 -13.0625,16 -18.5625,15.78906c-2.03125,-0.76953 -3.96094,-1.19922 -5.69922,-1.19922c-19.30078,0 -34.94141,15.63672 -34.94141,34.9375c0,19.28906 15.64063,34.94141 34.94141,34.94141l150.66015,0c22.16797,0 40.14844,-17.96875 40.14844,-40.15235c0,-22.16797 -17.96875,-40.13672 -40.14844,-40.13672"/>
   <path id="svg_75" fill-rule="nonzero" fill="rgb(99.198914%,87.799072%,87.098694%)" d="m2227.21094,467.03906c-26.03906,5.17969 -40.46094,4.24219 -71.01172,-22.55078c-12.32813,-18.17969 -33.14844,-30.1289 -56.77734,-30.1289c-30.07032,0 -55.60157,19.3789 -64.84375,46.32031c-7.4375,20.85156 -19.90625,24.37109 -28.28907,24.05078c-3.10937,-1.16016 -6.02734,-1.80859 -8.69922,-1.80859c-155.94921,0 -170.58984,77.0664 -170.58984,106.47656l400.21094,0c33.77734,0 61.17969,-27.38672 61.17969,-61.1875c0,-33.78906 -27.40235,-61.17188 -61.17969,-61.17188"/>
   <path id="svg_76" fill-rule="nonzero" fill="rgb(98.399353%,80.39856%,79.998779%)" d="m1953.71875,514.33984c15.96094,3.19141 24.8125,2.60157 43.55078,-13.82031c7.5586,-11.14844 20.33985,-18.48047 34.82031,-18.48047c18.44922,0 34.10938,11.88282 39.78125,28.40235c4.57032,12.79687 12.20704,14.94922 17.34766,14.75781c1.91016,-0.71875 3.70313,-1.10938 5.33984,-1.10938c95.65235,0 104.63282,47.26954 104.63282,65.3086l-245.47266,0c-20.73047,0 -37.52734,-16.79688 -37.52734,-37.52735c0,-20.73046 16.79687,-37.51953 37.52734,-37.53125"/>
   <path id="svg_77" fill-rule="nonzero" fill="rgb(99.198914%,87.799072%,87.098694%)" d="m637.75,326.87891c-28.57422,5.69922 -44.40234,4.66015 -77.94141,-24.73828c-13.53515,-19.96094 -36.39062,-33.07032 -62.3164,-33.07032c-33.00391,0 -61.03125,21.25782 -71.17188,50.82813c-8.17578,22.89062 -21.85547,26.76172 -31.05078,26.41015c-3.41015,-1.28906 -6.62109,-2 -9.55078,-2c-171.17969,0.01172 -187.25,84.61329 -187.25,116.89063l439.28125,-0.00781c37.08594,0 67.15625,-30.07032 67.15625,-67.16016c0,-37.08984 -30.07031,-67.15234 -67.15625,-67.15234"/>
   <path id="svg_78" fill-rule="nonzero" fill="rgb(98.399353%,80.39856%,79.998779%)" d="m337.56641,378.80859c17.52734,3.49219 27.23828,2.85157 47.80859,-15.17968c8.30469,-12.23828 22.32031,-20.27735 38.22266,-20.27735c20.24609,0 37.43359,13.03907 43.66015,31.17969c5.01172,14.03906 13.40235,16.41016 19.04297,16.19922c2.09375,-0.78906 4.0625,-1.23047 5.85938,-1.23047c104.99218,0 114.85547,51.89063 114.85547,71.69141l-269.44922,0c-22.7461,0 -41.1875,-18.44141 -41.1875,-41.19141c0,-22.75 18.4414,-41.19141 41.1875,-41.19141"/>
   <path id="svg_79" fill-rule="nonzero" fill="rgb(99.198914%,87.799072%,87.098694%)" d="m1263.51172,603.58984c-16.21094,3.21875 -25.19141,2.64063 -44.22266,-14.03906c-7.67968,-11.33203 -20.64843,-18.76953 -35.35937,-18.76953c-18.71875,0 -34.62891,12.07031 -40.37891,28.83984c-4.64062,12.98829 -12.40234,15.1875 -17.62109,14.98829c-1.94141,-0.73047 -3.75,-1.12891 -5.41797,-1.12891c-97.12109,0 -106.24219,48 -106.24219,66.30859l249.24219,0c21.03906,0 38.10937,-17.05859 38.10937,-38.09765c0,-21.05078 -17.07031,-38.10157 -38.10937,-38.10157"/>
   <path id="svg_80" fill-rule="nonzero" fill="rgb(28.999329%,21.998596%,26.699829%)" d="m1932.85156,747.05859c0,70.69141 -39.80078,127.98829 -88.90234,127.98829c-49.10938,0 -88.91016,-57.29688 -88.91016,-127.98829c0,-70.66796 39.80078,-127.98046 88.91016,-127.98046c49.10156,0 88.90234,57.3125 88.90234,127.98046"/>
   <path id="svg_81" fill-rule="nonzero" fill="rgb(96.899414%,66.299438%,68.598938%)" d="m1874.60938,832.12109l-61.32813,0l9.98828,-77.32031l29.90235,0l21.4375,77.32031"/>
   <path id="svg_82" fill-rule="nonzero" fill="rgb(96.899414%,66.299438%,68.598938%)" d="m1926.71094,1733.25l-36.42188,4.83984l-12.10937,-91.05859l36.42969,-4.85156l12.10156,91.07031"/>
   <path id="svg_83" fill-rule="nonzero" fill="rgb(96.899414%,66.299438%,68.598938%)" d="m1772.89063,1732.87109l-36.74219,-1.08203l2.6914,-91.82031l36.73047,1.07031l-2.67968,91.83203"/>
   <path id="svg_84" fill-rule="nonzero" fill="rgb(44.699097%,23.098755%,14.099121%)" d="m1786.92969,1682.92969l-60.44922,-1.76953c-20.85938,-176.76953 6.21875,-566.10938 6.21875,-566.10938l108.83203,-28.98047c0,0 -2.80078,449.78907 -54.60156,596.85938"/>
   <path id="svg_85" fill-rule="nonzero" fill="rgb(55.299377%,28.999329%,19.198608%)" d="m1927.23828,1682.39844l-59.9375,7.97265c-49.01953,-171.10156 -91.3789,-570.47265 -91.3789,-570.47265l117.94921,-36.14844c0,0 60.85938,445.17969 33.36719,598.64844"/>
   <path id="svg_86" fill-rule="nonzero" fill="rgb(92.199707%,74.099731%,43.499756%)" d="m1943.46094,1045.60156c0,96.82032 -97.15235,156.36719 -156.78125,156.36719c-59.60938,0 -59.10156,-59.54687 -59.10156,-156.36719c0,-96.82812 48.33203,-243.45312 107.95312,-243.45312c59.60938,0 107.92969,146.625 107.92969,243.45312"/>
   <path id="svg_87" fill-rule="nonzero" fill="rgb(6.698608%,1.998901%,12.5%)" d="m1670.07031,1752.5c1.21875,-23.55859 39.3711,-30.48828 66.16016,-29.69922c-0.33984,11.46875 36.44141,10.82031 36.80859,-1.42187c5.17969,2.55078 12.85938,28.53906 5.42188,37.12109c-15.49219,5.66797 -108.72266,0.35156 -108.39063,-6"/>
   <path id="svg_88" fill-rule="nonzero" fill="rgb(16.899109%,13.699341%,23.498535%)" d="m1828.57031,1769.12109c-2.57031,-23.4414 33.96875,-36.42187 60.53125,-39.95312c1.50782,11.38281 37.71875,4.83203 36.10938,-7.30859c5.51953,1.67968 17.26953,26.08984 11.30859,35.76171c-14.37109,8.08985 -107.23828,17.82813 -107.94922,11.5"/>
   <path id="svg_89" fill-rule="nonzero" fill="rgb(96.899414%,66.299438%,68.598938%)" d="m1866.89844,725.26953l-2.75781,0c-28.05079,0 -50.78125,-22.73828 -50.78125,-50.78125l0,-26.20703c-25.89063,2.32031 -46.17969,24.07031 -46.17969,50.55859l0,30c0,28.05079 22.73047,50.78125 50.76953,50.78125l2.76953,0c28.05078,0 50.76953,-22.73046 50.76953,-50.78125l0,-3.78906c-1.5,0.12891 -3.03906,0.21875 -4.58984,0.21875"/>
   <path id="svg_90" fill-rule="nonzero" fill="rgb(42.698669%,79.998779%,87.5%)" d="m1832.19141,713.94922c-16.17969,14.35156 6.57031,64.14062 -11.47266,65.67187c-31.91016,3.34766 -53.53906,-8.66015 -53.53906,-27.5c0,-18.82031 -6.01953,-35.94921 10.80859,-35.94921c13.97266,0.19921 47.3125,2.3789 54.20313,-2.22266"/>
   <path id="svg_91" fill-rule="nonzero" fill="rgb(96.899414%,66.299438%,68.598938%)" d="m1969.98047,1009.92188l-54.94922,6.84765c1.5,12.6211 -34.3125,139.83985 -60.67969,192.46094c-9.30078,18.53906 -2.98047,33.05859 8.10938,19.39062c61.32031,-73.22265 107.51953,-218.69921 107.51953,-218.69921"/>
   <path id="svg_92" fill-rule="nonzero" fill="rgb(92.89856%,90.99884%,53.69873%)" d="m1971.42969,953.57031c18.76172,66.80078 -22.94141,122.83985 -55.60938,132.00782c-32.67187,9.18359 -43.92968,-31.98829 -62.6914,-98.78125c-18.75782,-66.80469 -20.6875,-175.39844 11.99218,-184.56641c32.66016,-9.17969 87.55079,84.53906 106.3086,151.33984"/>
   <path id="svg_93" fill-rule="nonzero" fill="rgb(96.899414%,66.299438%,68.598938%)" d="m1867.19141,1245.76172c-9.89063,29.06641 -36.08203,11.22656 -35.67188,-16.54297c3.98047,-11.04687 13.14063,-14.16016 23.71875,-10.35937c10.58203,3.8125 15.73047,15.78125 11.95313,26.90234"/>
   <path id="svg_94" fill-rule="nonzero" fill="rgb(90.19928%,48.199463%,55.699158%)" d="m583.96094,619.58984c4.44531,0 8.79297,0.35157 13.11328,0.89844c12.71484,-11.88672 29.18359,-19.09765 47.1875,-19.09765c3.75781,0 7.42187,0.30078 11.02734,0.89843c3.60938,-0.59765 7.29688,-0.89843 11.04688,-0.89843c40.21094,0 72.8125,35.76953 72.8125,79.8789c0,12.64063 -2.7461,24.53125 -7.48828,35.12891c2.17187,9.74219 3.35156,19.90234 3.35156,30.37109c0,70.24219 -51.89063,127.17969 -115.92578,127.17969c-5.96875,0 -11.82813,-0.48438 -17.5625,-1.45703c-5.73438,0.97265 -11.59375,1.45703 -17.5625,1.45703c-64.03516,0 -115.92188,-56.9375 -115.92188,-127.17969c0,-70.23828 51.88672,-127.17969 115.92188,-127.17969"/>
   <path id="svg_95" fill-rule="nonzero" fill="rgb(49.798584%,32.899475%,30.198669%)" d="m874.35938,1441.82031l-50.00782,-89.9414c20.57422,-11.57813 172.08985,-204.87891 222.07813,-302.17969c17.60937,-34.26953 46.33203,-40.75 37.98047,-9.08984c-42.53125,172.30078 -210.05078,401.21093 -210.05078,401.21093"/>
   <path id="svg_96" fill-rule="nonzero" fill="rgb(92.89856%,90.99884%,53.69873%)" d="m651.64453,1314.94141c47.69141,119.77734 172.51172,155.44922 231.08594,132.11718c58.59375,-23.30859 28.76172,-96.80859 -18.92969,-216.58984c-47.69531,-119.79687 -167.41406,-282.30078 -226.01172,-258.97266c-58.57031,23.32032 -33.83984,223.63282 13.85547,343.44532"/>
   <path id="svg_97" fill-rule="nonzero" fill="rgb(49.798584%,32.899475%,30.198669%)" d="m1107.78906,1042.32031c51.58985,-65.69922 -11.39062,-69.94922 -29.59765,-80.17578c-18.24219,-10.23437 -14.15235,75.71485 -38.61328,24.42969c-10.6875,19.02734 -2.35938,61.42578 15.86328,71.66406c18.21875,10.25 38.84765,1.25 52.34765,-15.91797"/>
   <path id="svg_98" fill-rule="nonzero" fill="rgb(69.799805%,46.299744%,42.698669%)" d="m515.07813,1002.39063l113.96484,0l-18.55859,-143.6875l-55.57422,0l-39.83203,143.6875"/>
   <path id="svg_99" fill-rule="nonzero" fill="rgb(44.699097%,23.098755%,14.099121%)" d="m794.82813,1821.85156c-7.36329,-169.14062 -16.01954,-293.66015 -16.01954,-293.66015l-202.26953,-53.8711c0,0 0.96094,152 9.50782,347.53125l208.78125,0"/>
   <path id="svg_100" fill-rule="nonzero" fill="rgb(55.299377%,28.999329%,19.198608%)" d="m664.53125,1821.85156c21.18359,-164.40234 33.94141,-284.67187 33.94141,-284.67187l-219.17188,-67.16016c0,0 -21.03906,153.92188 -40.86719,351.83203l226.09766,0"/>
   <path id="svg_101" fill-rule="nonzero" fill="rgb(92.199707%,74.099731%,43.499756%)" d="m387.11328,1399.12109c0,179.91797 180.57031,290.59766 291.35156,290.59766c110.79688,0 109.85157,-110.67969 109.85157,-290.59766c0,-179.9414 -89.80469,-452.41796 -200.60157,-452.41796c-110.78125,0 -200.60156,272.47656 -200.60156,452.41796"/>
   <path id="svg_102" fill-rule="nonzero" fill="rgb(69.799805%,46.299744%,42.698669%)" d="m529.39063,803.80859l5.14453,0c52.125,0 94.375,-42.23828 94.375,-94.36718l0,-48.70313c48.09765,4.32031 85.8164,44.72266 85.8164,93.96094l0,55.76172c0,52.10937 -42.23047,94.35547 -94.35156,94.35547l-5.14453,0c-52.125,0 -94.375,-42.2461 -94.375,-94.35547l0,-7.05078c2.82422,0.25 5.67187,0.39843 8.53516,0.39843"/>
   <path id="svg_103" fill-rule="nonzero" fill="rgb(42.698669%,79.998779%,87.5%)" d="m593.91016,782.78125c30.05078,26.66797 -12.20313,119.19141 21.32031,122.03516c59.30859,6.23047 99.49609,-16.08594 99.49609,-51.09766c0,-34.98828 11.19922,-66.80859 -20.09375,-66.80859c-25.97656,0.37109 -87.9414,4.41015 -100.72265,-4.12891"/>
   <path id="svg_104" fill-rule="nonzero" fill="rgb(69.799805%,46.299744%,42.698669%)" d="m390.38281,1370.76953l95.76563,-37.67969c8.76953,21.92969 180.2539,197.75 270.07422,260.19141c31.6289,22.00781 34.24218,51.32813 3.96484,38.87891c-165.11719,-65.03125 -369.80469,-261.39063 -369.80469,-261.39063"/>
   <path id="svg_105" fill-rule="nonzero" fill="rgb(92.89856%,90.99884%,53.69873%)" d="m351.75781,1239.39063c-27.3125,126 56.35157,225.26953 117.98828,238.64062c61.60938,13.32813 77.88282,-64.29297 105.1875,-190.3125c27.28907,-126.02734 18.66407,-327.67187 -42.96484,-341.01562c-61.63281,-13.35157 -152.93359,166.66796 -180.21094,292.6875"/>
   <path id="svg_106" fill-rule="nonzero" fill="rgb(69.799805%,46.299744%,42.698669%)" d="m767.69531,1664.32813c53.21485,64.4414 61.07813,-3.11719 74.97657,-18.73829c13.87109,-15.62109 -34.64454,-6.01171 -6.76954,-37.55078c-16.29687,-14.50781 -58.69921,-13.85937 -72.57031,1.76172c-13.89844,15.6211 -9.51562,37.71094 4.36328,54.52735"/>
  </g>
 </g>
</svg>